<?xml version="1.0" standalone="no"?>
<!DOCTYPE svg PUBLIC "-//W3C//DTD SVG 20010904//EN"
 "http://www.w3.org/TR/2001/REC-SVG-20010904/DTD/svg10.dtd">
<svg version="1.0" xmlns="http://www.w3.org/2000/svg"
 width="1024.000000pt" height="1024.000000pt" viewBox="0 0 1024.000000 1024.000000"
 preserveAspectRatio="xMidYMid meet">

<g transform="translate(0.000000,1024.000000) scale(0.100000,-0.100000)"
fill="#000000" stroke="none">
<path d="M4705 10028 c-3 -7 -24 -71 -48 -143 -78 -231 -202 -597 -402 -1190
-108 -319 -245 -726 -305 -905 -60 -179 -175 -518 -255 -755 -80 -236 -161
-477 -180 -535 -19 -58 -66 -197 -104 -310 -213 -627 -371 -1103 -371 -1118 0
-9 64 -206 142 -437 77 -231 228 -679 335 -995 107 -316 241 -714 298 -885
135 -401 408 -1203 675 -1985 73 -212 148 -431 167 -487 l35 -103 444 0 c244
0 444 1 444 3 0 2 22 66 205 602 75 220 159 465 185 545 27 80 108 318 180
530 72 212 153 450 180 530 54 159 111 327 345 1015 86 253 179 525 205 605
27 80 76 220 109 312 33 92 108 308 166 480 l105 313 -90 265 c-49 146 -177
526 -285 845 -108 319 -218 645 -245 725 -27 80 -96 285 -155 455 -58 171
-128 375 -155 455 -46 137 -131 387 -425 1245 -69 204 -156 456 -191 560 -36
105 -79 232 -96 283 l-30 92 -439 0 c-343 0 -441 -3 -444 -12z m465 -788 c18
-74 43 -171 55 -215 12 -44 39 -141 60 -215 48 -174 106 -354 251 -780 64
-190 145 -428 180 -530 34 -102 108 -319 164 -483 56 -164 100 -300 98 -303
-3 -2 -387 -3 -855 -2 l-851 3 18 55 c10 30 91 269 180 530 242 713 405 1204
445 1347 20 70 54 189 75 264 21 75 55 202 74 282 41 167 54 204 65 191 4 -5
22 -70 41 -144z m993 -3182 c14 -40 51 -147 81 -238 31 -91 99 -293 153 -450
l97 -285 -158 -480 c-87 -264 -162 -490 -167 -502 l-9 -23 -1010 0 c-555 0
-1010 1 -1010 3 0 4 -314 931 -334 986 -22 60 -21 71 18 180 19 53 92 273 163
488 l128 393 1011 0 1012 0 25 -72z m-163 -2564 c0 -16 -91 -290 -336 -1009
-147 -433 -251 -751 -307 -940 -39 -131 -159 -579 -178 -662 -7 -29 -16 -53
-20 -53 -8 0 -20 40 -63 200 -78 293 -108 403 -130 475 -13 44 -36 118 -50
165 -14 47 -58 180 -97 295 -39 116 -100 293 -134 395 -35 102 -134 392 -220
645 -86 253 -159 470 -162 483 l-5 22 851 0 c769 0 851 -2 851 -16z"/>
<path d="M4623 5981 c-73 -25 -128 -66 -174 -130 l-39 -54 0 39 c0 21 -3 63
-6 92 l-7 52 -91 0 -91 0 0 -865 0 -865 92 0 91 0 7 78 c4 42 7 81 8 85 1 4
19 -15 40 -43 78 -104 199 -156 347 -148 133 8 223 59 295 167 22 33 42 61 45
61 3 0 21 -25 40 -55 87 -138 256 -202 433 -165 73 15 170 79 217 143 l35 47
2 -32 c2 -18 6 -57 9 -85 l5 -53 92 0 92 0 -2 862 -2 863 -90 3 -89 3 -6 -53
c-3 -29 -7 -71 -9 -92 l-2 -40 -29 47 c-35 55 -88 100 -154 130 -40 19 -65 22
-172 22 -107 0 -132 -3 -172 -22 -60 -28 -130 -93 -166 -154 l-28 -49 -49 67
c-60 81 -119 127 -187 148 -72 21 -219 19 -285 -4z m223 -193 c65 -43 99 -108
114 -213 8 -55 11 -218 8 -515 -4 -501 -5 -506 -86 -590 -74 -76 -141 -79
-217 -9 -52 48 -82 116 -95 211 -13 100 -12 788 1 885 16 122 65 206 144 247
45 24 78 19 131 -16z m750 -3 c19 -15 47 -44 61 -66 53 -80 56 -111 61 -548 5
-506 -6 -596 -78 -689 -29 -37 -89 -72 -123 -72 -68 0 -139 59 -181 149 -20
44 -21 63 -24 504 -2 277 1 485 7 524 29 185 165 283 277 198z"/>
<path d="M3515 9239 c-184 -72 -465 -211 -645 -319 -613 -370 -1124 -881
-1500 -1501 -83 -136 -248 -462 -293 -579 -45 -114 -104 -274 -117 -315 -7
-22 -16 -44 -20 -50 -4 -5 -26 -77 -48 -160 -179 -671 -199 -1354 -62 -2031
146 -715 482 -1398 969 -1969 189 -222 486 -498 729 -677 242 -179 561 -364
817 -475 126 -55 248 -103 252 -100 1 2 -52 166 -120 366 l-122 362 -110 63
c-532 302 -979 723 -1319 1243 -303 465 -511 1027 -581 1570 -35 278 -37 658
-4 953 23 215 101 547 184 788 166 482 444 949 792 1327 301 328 693 630 1043
805 36 18 66 34 68 35 6 5 243 717 240 720 -2 2 -70 -23 -153 -56z"/>
<path d="M6670 9193 c15 -48 71 -214 123 -367 l95 -279 38 -20 c145 -73 359
-211 529 -341 256 -194 548 -491 736 -746 423 -573 668 -1212 739 -1919 13
-132 13 -553 0 -696 -81 -882 -476 -1722 -1105 -2350 -252 -253 -523 -457
-863 -651 -32 -18 -38 -31 -152 -369 -65 -192 -121 -358 -125 -369 -11 -25 1
-21 199 66 656 287 1211 715 1687 1302 255 316 530 800 657 1156 17 47 49 134
71 194 88 235 159 565 198 921 23 218 23 649 -1 870 -38 357 -117 716 -219
1006 -310 872 -869 1614 -1617 2145 -249 177 -601 370 -869 476 -69 27 -131
52 -138 55 -7 3 0 -32 17 -84z"/>
</g>
</svg>
